# xmcd CD database file
#
# Track frame offsets:
#	182
#	12015
#	28380
#	49370
#	62677
#	87040
#	100117
#	113347
#	126707
#	142992
#	158437
#
# Disc length: 2434 seconds
#
# Revision: 3
# Processed by: cddbd v1.5.2PL0 Copyright (c) Steve Scherf et al.
# Submitted via: CDex 1.51
#
DISCID=8709800b
DTITLE=Zuzu Bollin - Texas Bluesman
DYEAR=1991
DGENRE=Blues
TTITLE0=Big Legs
TTITLE1=Hey Little Girl
TTITLE2=Blues In The Dark
TTITLE3=Kidney Stew
TTITLE4=Cold, Cold Feeling
TTITLE5=Why Don't You Eat Where You Slept Last Night
TTITLE6=Headlight Blues
TTITLE7=How Do You Want Your Rollin' Done
TTITLE8=Leary Blues
TTITLE9=Rebecca
TTITLE10=Zu's Blues
EXTD=YEAR: 1991
EXTT0=
EXTT1=
EXTT2=
EXTT3=
EXTT4=
EXTT5=
EXTT6=
EXTT7=
EXTT8=
EXTT9=
EXTT10=
PLAYORDER=
